<svg xmlns="http://www.w3.org/2000/svg" width="16" height="16" viewBox="0 0 16 16" fill="none">
  <g clip-path="url(#clip0_2386_347)">
    <path d="M7.63067 1.28787C7.76731 0.959358 8.23269 0.959357 8.36933 1.28787L10.0222 5.26186C10.0798 5.40035 10.21 5.49498 10.3596 5.50697L14.6498 5.85091C15.0045 5.87935 15.1483 6.32195 14.8781 6.55342L11.6094 9.35342C11.4954 9.451 11.4457 9.60411 11.4805 9.75001L12.4791 13.9366C12.5617 14.2827 12.1852 14.5562 11.8816 14.3707L8.2085 12.1273C8.0805 12.0491 7.9195 12.0491 7.7915 12.1273L4.11845 14.3707C3.81481 14.5562 3.43831 14.2827 3.52086 13.9366L4.51951 9.75001C4.55431 9.60411 4.50456 9.451 4.39065 9.35342L1.12193 6.55342C0.851716 6.32195 0.995526 5.87935 1.35019 5.85091L5.64044 5.50697C5.78995 5.49498 5.9202 5.40035 5.9778 5.26186L7.63067 1.28787Z" fill="#4B4744"/>
  </g>
  <defs>
    <clipPath id="clip0_2386_347">
      <rect width="16" height="16" fill="white"/>
    </clipPath>
  </defs>
</svg>