<svg width="500" height="500" viewBox="0 0 500 500" fill="none" xmlns="http://www.w3.org/2000/svg">
<g clip-path="url(#clip0_181_1036)">
<mask id="mask0_181_1036" style="mask-type:luminance" maskUnits="userSpaceOnUse" x="0" y="0" width="500" height="500">
<path d="M500 0H0V500H500V0Z" fill="white"/>
</mask>
<g mask="url(#mask0_181_1036)">
<path d="M453.964 109.602C453.964 143.268 426.85 170.63 393.214 170.944C393.001 170.975 392.814 170.975 392.591 170.975C390.641 170.975 388.682 170.883 386.753 170.694C384.457 170.474 382.217 170.132 380.017 169.668C352.159 163.864 331.228 139.173 331.228 109.602C331.228 106.001 331.541 102.494 332.155 99.0793C332.531 96.7743 333.025 94.5403 333.713 92.3713C334.272 90.2863 335.016 88.2413 335.821 86.2853C345.017 63.9573 366.973 48.2363 392.592 48.2363C426.508 48.2363 453.964 75.6883 453.964 109.602Z" fill="#8AB836"/>
</g>
<mask id="mask1_181_1036" style="mask-type:luminance" maskUnits="userSpaceOnUse" x="0" y="0" width="500" height="500">
<path d="M500 0H0V500H500V0Z" fill="white"/>
</mask>
<g mask="url(#mask1_181_1036)">
<path d="M135.073 202.34C135.073 219.273 125.664 233.962 111.783 241.476C109.915 242.468 108.024 243.368 106.003 244.089C104.08 244.803 102.09 245.388 100.073 245.822C96.9992 246.502 93.8322 246.851 90.5692 246.851C65.9732 246.851 46.0342 226.939 46.0342 202.34C46.0342 177.775 65.9732 157.836 90.5692 157.836C95.0432 157.836 99.3562 158.492 103.424 159.735C105.414 160.324 107.346 161.065 109.208 161.908C111.127 162.805 112.989 163.83 114.765 164.98C126.995 172.935 135.073 186.689 135.073 202.34Z" fill="#8AB836"/>
</g>
<mask id="mask2_181_1036" style="mask-type:luminance" maskUnits="userSpaceOnUse" x="0" y="0" width="500" height="500">
<path d="M500 0H0V500H500V0Z" fill="white"/>
</mask>
<g mask="url(#mask2_181_1036)">
<path d="M135.073 202.34C135.073 219.273 125.664 233.962 111.783 241.476C109.915 242.468 108.024 243.368 106.003 244.089C103.113 232.686 101.589 220.728 101.589 208.429C101.589 192.153 104.267 176.505 109.208 161.908C111.127 162.805 112.989 163.83 114.765 164.98C126.995 172.935 135.073 186.689 135.073 202.34Z" fill="#0D99FF"/>
</g>
<mask id="mask3_181_1036" style="mask-type:luminance" maskUnits="userSpaceOnUse" x="0" y="0" width="500" height="500">
<path d="M500 0H0V500H500V0Z" fill="white"/>
</mask>
<g mask="url(#mask3_181_1036)">
<path d="M386.752 170.694C384.457 170.474 382.217 170.132 380.018 169.668C352.159 163.864 331.228 139.173 331.228 109.602C331.228 106.001 331.54 102.494 332.156 99.0791C332.532 96.7741 333.026 94.5401 333.713 92.3711C359.242 111.561 378.247 138.987 386.752 170.694Z" fill="#0D99FF"/>
</g>
<mask id="mask4_181_1036" style="mask-type:luminance" maskUnits="userSpaceOnUse" x="0" y="0" width="500" height="500">
<path d="M500 0H0V500H500V0Z" fill="white"/>
</mask>
<g mask="url(#mask4_181_1036)">
<path d="M335.82 86.2852C335.014 88.2412 334.27 90.2862 333.712 92.3712C333.024 94.5402 332.53 96.7742 332.154 99.0782C354.77 116.807 371.789 141.376 380.016 169.668C382.216 170.131 384.456 170.473 386.752 170.694C388.681 170.883 390.64 170.974 392.59 170.974C392.813 170.974 393 170.974 393.213 170.944C384.43 136.469 363.743 106.714 335.82 86.2852ZM109.208 161.907C107.346 161.064 105.414 160.323 103.424 159.734C98.2069 175.012 95.3809 191.41 95.3809 208.428C95.3809 221.317 96.9989 233.87 100.073 245.821C102.09 245.388 104.08 244.803 106.003 244.088C108.023 243.367 109.915 242.467 111.783 241.476C109.171 230.882 107.806 219.827 107.806 208.428C107.806 193.276 110.26 178.644 114.765 164.98C112.99 163.829 111.127 162.804 109.208 161.907Z" fill="white"/>
</g>
<mask id="mask5_181_1036" style="mask-type:luminance" maskUnits="userSpaceOnUse" x="0" y="0" width="500" height="500">
<path d="M500 0H0V500H500V0Z" fill="white"/>
</mask>
<g mask="url(#mask5_181_1036)">
<path d="M397.932 208.429C397.932 291.849 330.077 359.706 246.664 359.706C176.129 359.706 116.753 311.223 100.074 245.821C102.091 245.388 104.081 244.803 106.004 244.088C108.024 243.367 109.916 242.467 111.784 241.475C125.665 233.961 135.074 219.273 135.074 202.339C135.074 186.689 126.995 172.934 114.766 164.98C112.99 163.829 111.128 162.804 109.209 161.907C107.347 161.064 105.415 160.323 103.425 159.734C123.739 100.135 180.259 57.1543 246.664 57.1543C279.986 57.1543 310.826 67.9613 335.821 86.2853C335.015 88.2413 334.271 90.2863 333.713 92.3713C333.025 94.5393 332.531 96.7743 332.155 99.0783C331.54 102.494 331.228 106 331.228 109.601C331.228 139.172 352.159 163.863 380.017 169.668C382.217 170.131 384.457 170.473 386.753 170.693C388.682 170.883 390.641 170.974 392.591 170.974C392.814 170.974 393 170.974 393.214 170.944C396.294 182.933 397.932 195.506 397.932 208.429Z" fill="#0D99FF"/>
</g>
<mask id="mask6_181_1036" style="mask-type:luminance" maskUnits="userSpaceOnUse" x="0" y="0" width="500" height="500">
<path d="M500 0H0V500H500V0Z" fill="white"/>
</mask>
<g mask="url(#mask6_181_1036)">
<path d="M259.823 222.275H176.835C179.794 228.153 183.818 233.136 188.922 237.201C194.022 241.265 199.796 244.562 206.244 247.077H242.503V283.663H210.475C202.548 283.663 192.283 280.021 179.661 272.731C166.364 264.885 156.294 255.003 149.444 243.082C146.757 238.74 144.539 234.184 142.797 229.418C141.053 224.66 139.777 219.745 138.968 214.702V193.674C139.777 188.349 141.053 183.377 142.797 178.751C144.539 174.124 146.757 169.707 149.444 165.5C156.826 153.306 166.898 143.497 179.661 136.068C186.37 132.423 193.217 129.627 200.203 127.657C207.185 125.7 214.435 124.716 221.956 124.716H323.873V154.148C322.134 164.238 318.772 173.698 313.804 182.535C306.152 195.153 301.318 201.949 299.305 202.924L298.499 204.612L291.245 211.341L259.823 222.275ZM256.601 186.526C263.049 184.001 268.819 180.715 273.927 176.647C279.024 172.585 282.92 166.764 285.607 159.196H218.734L206.245 161.508C199.797 164.032 194.023 167.329 188.923 171.394C183.819 175.455 179.795 180.502 176.836 186.526H256.601Z" fill="white"/>
</g>
<mask id="mask7_181_1036" style="mask-type:luminance" maskUnits="userSpaceOnUse" x="0" y="0" width="500" height="500">
<path d="M500 0H0V500H500V0Z" fill="white"/>
</mask>
<g mask="url(#mask7_181_1036)">
<path d="M262.158 246.979V251.596C259.697 251.596 258.245 251.674 257.803 251.85C257.369 252.022 257.143 252.513 257.143 253.327V254.27H262.159V258.989H259.323V283.409H247.406V258.989H244.968V254.27H247.406C247.406 252.307 247.497 250.99 247.673 250.331C247.849 249.674 248.289 249.082 248.99 248.565C249.683 248.05 250.661 247.661 251.92 247.386C253.184 247.119 255.14 246.98 257.793 246.98L262.158 246.979Z" fill="white"/>
</g>
<mask id="mask8_181_1036" style="mask-type:luminance" maskUnits="userSpaceOnUse" x="0" y="0" width="500" height="500">
<path d="M500 0H0V500H500V0Z" fill="white"/>
</mask>
<g mask="url(#mask8_181_1036)">
<path d="M291.395 260.07V268.827C291.395 272.058 291.212 274.418 290.864 275.911C290.511 277.42 289.754 278.821 288.593 280.122C287.432 281.432 285.94 282.395 284.122 283.018C282.304 283.634 280.216 283.939 277.853 283.939C275.223 283.939 272.987 283.678 271.162 283.15C269.328 282.626 267.907 281.82 266.891 280.74C265.879 279.677 265.156 278.385 264.725 276.858C264.295 275.341 264.082 273.063 264.082 270.024V260.842C264.082 257.518 264.471 254.918 265.257 253.047C266.042 251.175 267.457 249.683 269.508 248.532C271.552 247.411 274.164 246.85 277.35 246.85C280.031 246.85 282.326 247.208 284.241 247.94C286.157 248.657 287.636 249.612 288.681 250.773C289.727 251.961 290.431 253.155 290.822 254.398C291.201 255.641 291.395 257.519 291.395 260.07ZM279.471 257.367C279.471 255.536 279.369 254.378 279.149 253.9C278.932 253.423 278.472 253.183 277.765 253.183C277.054 253.183 276.583 253.423 276.347 253.9C276.118 254.378 275.998 255.536 275.998 257.367V273.527C275.998 275.216 276.117 276.319 276.347 276.839C276.583 277.353 277.047 277.603 277.739 277.603C278.442 277.603 278.91 277.371 279.135 276.902C279.359 276.436 279.471 275.427 279.471 273.887V257.367Z" fill="white"/>
</g>
<mask id="mask9_181_1036" style="mask-type:luminance" maskUnits="userSpaceOnUse" x="0" y="0" width="500" height="500">
<path d="M500 0H0V500H500V0Z" fill="white"/>
</mask>
<g mask="url(#mask9_181_1036)">
<path d="M307.583 246.979H295.317V283.408H307.583V246.979Z" fill="white"/>
</g>
<mask id="mask10_181_1036" style="mask-type:luminance" maskUnits="userSpaceOnUse" x="0" y="0" width="500" height="500">
<path d="M500 0H0V500H500V0Z" fill="white"/>
</mask>
<g mask="url(#mask10_181_1036)">
<path d="M324.13 251.724H311.864V246.979H324.13V251.724ZM324.13 283.408H311.864V253.546H324.13V283.408Z" fill="white"/>
</g>
<mask id="mask11_181_1036" style="mask-type:luminance" maskUnits="userSpaceOnUse" x="0" y="0" width="500" height="500">
<path d="M500 0H0V500H500V0Z" fill="white"/>
</mask>
<g mask="url(#mask11_181_1036)">
<path d="M46.0352 377.934H80.8982V390.2H59.3862V402.701H80.8982V414.778H59.3862V427.609H80.8982V439.876H46.0352V377.934Z" fill="#0D99FF"/>
</g>
<mask id="mask12_181_1036" style="mask-type:luminance" maskUnits="userSpaceOnUse" x="0" y="0" width="500" height="500">
<path d="M500 0H0V500H500V0Z" fill="white"/>
</mask>
<g mask="url(#mask12_181_1036)">
<path d="M92.3145 377.934H127.177V389.917H105.57V402.56H127.177V414.637H105.666V439.876H92.3145V377.934Z" fill="#0D99FF"/>
</g>
<mask id="mask13_181_1036" style="mask-type:luminance" maskUnits="userSpaceOnUse" x="0" y="0" width="500" height="500">
<path d="M500 0H0V500H500V0Z" fill="white"/>
</mask>
<g mask="url(#mask13_181_1036)">
<path d="M136.471 408.882C136.471 399.73 139.497 392.174 145.552 386.214C151.606 380.254 158.785 377.274 167.088 377.274C176.271 377.274 183.866 380.27 189.874 386.261C195.881 392.252 198.884 399.824 198.884 408.976C198.884 418.065 195.912 425.614 189.968 431.621C184.024 437.629 176.538 440.632 167.512 440.632C158.486 440.632 151.056 437.645 145.222 431.669C139.387 425.691 136.471 418.097 136.471 408.882ZM167.701 389.634C162.512 389.539 158.329 391.331 155.152 395.012C151.975 398.692 150.387 403.441 150.387 409.259C150.387 414.763 152.007 419.323 155.247 422.94C158.486 426.557 162.574 428.365 167.512 428.365C172.702 428.365 176.893 426.581 180.085 423.011C183.277 419.441 184.873 414.732 184.873 408.882C184.873 403.126 183.308 398.503 180.179 395.012C177.05 391.521 172.891 389.728 167.701 389.634Z" fill="#0D99FF"/>
</g>
<mask id="mask14_181_1036" style="mask-type:luminance" maskUnits="userSpaceOnUse" x="0" y="0" width="500" height="500">
<path d="M500 0H0V500H500V0Z" fill="white"/>
</mask>
<g mask="url(#mask14_181_1036)">
<path d="M210.301 377.934H223.558V426.525H241.815V439.876H210.301V377.934Z" fill="#0D99FF"/>
</g>
<mask id="mask15_181_1036" style="mask-type:luminance" maskUnits="userSpaceOnUse" x="0" y="0" width="500" height="500">
<path d="M500 0H0V500H500V0Z" fill="white"/>
</mask>
<g mask="url(#mask15_181_1036)">
<path d="M263.941 377.934H250.589V439.876H263.941V377.934Z" fill="#0D99FF"/>
</g>
<mask id="mask16_181_1036" style="mask-type:luminance" maskUnits="userSpaceOnUse" x="0" y="0" width="500" height="500">
<path d="M500 0H0V500H500V0Z" fill="white"/>
</mask>
<g mask="url(#mask16_181_1036)">
<path d="M278.849 425.771H290.926L281.208 451.766H274.226L278.849 425.771Z" fill="#0D99FF"/>
</g>
<mask id="mask17_181_1036" style="mask-type:luminance" maskUnits="userSpaceOnUse" x="0" y="0" width="500" height="500">
<path d="M500 0H0V500H500V0Z" fill="white"/>
</mask>
<g mask="url(#mask17_181_1036)">
<path d="M327.439 377.934H340.696V426.525H358.953V439.876H327.439V377.934Z" fill="#0D99FF"/>
</g>
<mask id="mask18_181_1036" style="mask-type:luminance" maskUnits="userSpaceOnUse" x="0" y="0" width="500" height="500">
<path d="M500 0H0V500H500V0Z" fill="white"/>
</mask>
<g mask="url(#mask18_181_1036)">
<path d="M368.672 377.934H381.929V426.525H400.186V439.876H368.672V377.934Z" fill="#0D99FF"/>
</g>
<path d="M453.964 381.234V396.331C447.266 392.306 441.4 390.292 436.367 390.292C431.334 390.292 427.31 392.022 424.29 395.481C421.271 398.941 419.763 403.595 419.763 409.445C419.763 414.981 421.35 419.407 424.527 422.725C427.704 426.043 431.949 427.703 437.265 427.703C441.918 427.703 447.486 425.832 453.964 422.088V437.09C446.699 439.514 440.645 440.724 435.801 440.724C427.467 440.724 420.391 437.664 414.572 431.547C408.753 425.432 405.844 417.97 405.844 409.162C405.844 400.199 408.808 392.612 414.737 386.4C420.665 380.189 427.876 377.083 436.367 377.083C441.84 377.083 447.705 378.467 453.964 381.234Z" fill="#0D99FF"/>
</g>
<defs>
<clipPath id="clip0_181_1036">
<rect width="500" height="500" fill="white"/>
</clipPath>
</defs>
</svg>
